<svg id="Box" xmlns="http://www.w3.org/2000/svg" width="32" height="32" viewBox="0 0 32 32">
  <g id="Group_7427" data-name="Group 7427">
    <rect id="Rectangle_1856" data-name="Rectangle 1856" width="32" height="32" fill="none"/>
  </g>
  <g id="Group_7429" data-name="Group 7429" transform="translate(2 2)">
    <g id="Group_7428" data-name="Group 7428">
      <path id="Path_6505" data-name="Path 6505" d="M27.2,2H4.8A2.9,2.9,0,0,0,2,4.8V9.014A2.828,2.828,0,0,0,3.4,11.38V27.2A3.008,3.008,0,0,0,6.2,30H25.8a3.008,3.008,0,0,0,2.8-2.8V11.38A2.828,2.828,0,0,0,30,9.014V4.8A2.9,2.9,0,0,0,27.2,2ZM25.8,27.2H6.2V11.8H25.8ZM27.2,9H4.8V4.8H27.2Z" transform="translate(-2 -2)"/>
      <rect id="Rectangle_1857" data-name="Rectangle 1857" width="6" height="2" transform="translate(11 14.444)"/>
    </g>
  </g>
</svg>
