<svg id="Cadeia_de_amostras" data-name="Cadeia de amostras" xmlns="http://www.w3.org/2000/svg" width="41" height="24" viewBox="0 0 41 24">
  <rect id="Rectangle_1891" data-name="Rectangle 1891" width="41" height="24" fill="#fff"/>
  <g id="Amostras">
    <path id="clinical_a" d="M18.5,4a.477.477,0,0,0-.5.45V5.8a.477.477,0,0,0,.5.45H19V7.273a.684.684,0,0,0-.5.637V19.75A2.385,2.385,0,0,0,21,22a2.385,2.385,0,0,0,2.5-2.25V7.909a.684.684,0,0,0-.5-.637V6.25h.5A.477.477,0,0,0,24,5.8V4.45A.477.477,0,0,0,23.5,4ZM20,7.459V6.25h2V7.459a.684.684,0,0,0,.5.637v2.2h-3V8.1A.684.684,0,0,0,20,7.459Z" transform="translate(-15 -1)" fill="#ababab" fill-rule="evenodd"/>
    <path id="clinical_a-2" data-name="clinical_a" d="M18.5,4a.477.477,0,0,0-.5.45V5.8a.477.477,0,0,0,.5.45H19V7.273a.684.684,0,0,0-.5.637V19.75A2.385,2.385,0,0,0,21,22a2.385,2.385,0,0,0,2.5-2.25V7.909a.684.684,0,0,0-.5-.637V6.25h.5A.477.477,0,0,0,24,5.8V4.45A.477.477,0,0,0,23.5,4ZM20,7.459V6.25h2V7.459a.684.684,0,0,0,.5.637v2.2h-3V8.1A.684.684,0,0,0,20,7.459Z" transform="translate(-5 -1)" fill="#ababab" fill-rule="evenodd"/>
    <path id="clinical_a-3" data-name="clinical_a" d="M18.5,4a.477.477,0,0,0-.5.45V5.8a.477.477,0,0,0,.5.45H19V7.273a.684.684,0,0,0-.5.637V19.75A2.385,2.385,0,0,0,21,22a2.385,2.385,0,0,0,2.5-2.25V7.909a.684.684,0,0,0-.5-.637V6.25h.5A.477.477,0,0,0,24,5.8V4.45A.477.477,0,0,0,23.5,4ZM20,7.459V6.25h2V7.459a.684.684,0,0,0,.5.637v2.2h-3V8.1A.684.684,0,0,0,20,7.459Z" transform="translate(5 -1)" fill="#ababab" fill-rule="evenodd"/>
    <path id="clinical_a-4" data-name="clinical_a" d="M18.5,4a.477.477,0,0,0-.5.45V5.8a.477.477,0,0,0,.5.45H19V7.273a.684.684,0,0,0-.5.637V19.75A2.385,2.385,0,0,0,21,22a2.385,2.385,0,0,0,2.5-2.25V7.909a.684.684,0,0,0-.5-.637V6.25h.5A.477.477,0,0,0,24,5.8V4.45A.477.477,0,0,0,23.5,4ZM20,7.459V6.25h2V7.459a.684.684,0,0,0,.5.637v2.2h-3V8.1A.684.684,0,0,0,20,7.459Z" transform="translate(15 -1)" fill="#ababab" fill-rule="evenodd"/>
  </g>
</svg>
