<svg id="next_week-24px_2_" data-name="next_week-24px (2)" xmlns="http://www.w3.org/2000/svg" width="24" height="24" viewBox="0 0 24 24">
  <g id="Group_6812" data-name="Group 6812">
    <rect id="Rectangle_1677" data-name="Rectangle 1677" width="24" height="24" fill="none"/>
  </g>
  <g id="Group_6815" data-name="Group 6815">
    <g id="Group_6814" data-name="Group 6814">
      <g id="Group_6813" data-name="Group 6813">
        <path id="Path_6204" data-name="Path 6204" d="M20,7H16V5a2.015,2.015,0,0,0-2-2H10A2.006,2.006,0,0,0,8,5V7H4A2.006,2.006,0,0,0,2,9V20a2.006,2.006,0,0,0,2,2H20a2.006,2.006,0,0,0,2-2V9A2.006,2.006,0,0,0,20,7ZM10,5h4V7H10Zm1,13.5-1-1,3-3-3-3,1-1,4,4Z" fill="#1ab383"/>
      </g>
    </g>
  </g>
</svg>
