<svg id="Padlock" xmlns="http://www.w3.org/2000/svg" width="24" height="24" viewBox="0 0 24 24">
  <path id="Path_6328" data-name="Path 6328" d="M0,0H24V24H0Z" fill="none"/>
  <path id="Path_6329" data-name="Path 6329" d="M0,0H24V24H0Z" fill="none" opacity="0.87"/>
  <path id="Path_6330" data-name="Path 6330" d="M14.5,6.667h-.75V5.048A3.909,3.909,0,0,0,10,1,3.909,3.909,0,0,0,6.25,5.048V6.667H5.5A1.568,1.568,0,0,0,4,8.286v8.1A1.568,1.568,0,0,0,5.5,18h9A1.568,1.568,0,0,0,16,16.381v-8.1A1.568,1.568,0,0,0,14.5,6.667ZM7.75,5.048A2.341,2.341,0,0,1,10,2.619a2.341,2.341,0,0,1,2.25,2.429V6.667H7.75ZM14.5,16.381h-9v-8.1h9ZM10,13.952a1.624,1.624,0,0,0,0-3.238,1.624,1.624,0,0,0,0,3.238Z" transform="translate(2 3)" fill="#99032b"/>
</svg>
