<svg id="Tip" xmlns="http://www.w3.org/2000/svg" width="18" height="18" viewBox="0 0 18 18">
  <g id="Idea">
    <g id="Icons_Idea" data-name="Icons / Idea" transform="translate(18 18) rotate(180)">
      <path id="Path_6298" data-name="Path 6298" d="M0,0H18V18H0Z" fill="none"/>
      <path id="Path_6299" data-name="Path 6299" d="M1.855,12.16,2.88,13.166l1.3-1.284L3.156,10.875Zm5.418.649H8.727V14.95H7.273ZM0,6.387H2.182V7.814H0Zm8.727-4.96V4.253l.727.414a2.849,2.849,0,0,1,1.455,2.469A2.91,2.91,0,1,1,6.545,4.667l.727-.414V1.427H8.727M10.182,0H5.818V3.432a4.266,4.266,0,0,0-2.182,3.7,4.364,4.364,0,0,0,8.727,0,4.266,4.266,0,0,0-2.182-3.7V0Zm3.636,6.387H16V7.814H13.818Zm-2.007,5.5,1.3,1.284,1.025-1.006L12.829,10.89Z" transform="translate(1 2.05)" fill="#1ab383"/>
    </g>
  </g>
</svg>
